<?xml version="1.0" encoding="iso-8859-1"?>
<!-- Generator: Adobe Illustrator 21.1.0, SVG Export Plug-In . SVG Version: 6.00 Build 0)  -->
<svg version="1.1" id="_x31_2" xmlns="http://www.w3.org/2000/svg" xmlns:xlink="http://www.w3.org/1999/xlink" x="0px" y="0px"
	 viewBox="0 0 512 512" style="enable-background:new 0 0 512 512;" xml:space="preserve">
<g>
	<path style="fill:#FFFFFF;" d="M190.517,170.183c8.976-10.971,15.957-52.359,15.957-56.349c0-3.989-14.96-29.421-18.45-46.874
		c-3.491-17.453,7.48-50.365,13.962-54.853c6.483-4.488,28.629,18.383,29.92,25.432c1.29,7.049,2.493,5.485,2.493,5.485
		s14.96-29.421,27.426-29.92c12.466-0.499,12.466,27.925,11.968,34.408c-0.499,6.482-6.981,31.914-9.475,41.389
		c-2.493,9.475,0.997,22.44,2.493,23.936s19.448,11.968,23.437,23.936c3.989,11.968-0.499,22.938-3.989,27.426
		c-3.491,4.488-15.458,13.962-16.954,17.952s3.989,8.477,4.987,12.467c0.997,3.989,11.749,19.315,17.453,23.437
		c5.704,4.122,9.668,1.138,13.464-1.995c3.796-3.133,16.954-23.437,28.424-30.917c11.469-7.48,29.028-3.896,31.914,0.997
		c2.886,4.893-4.488,9.475-4.488,9.475l-5.485,6.483c0,0-2.493,8.976-5.485,10.472c-2.992,1.496-7.48,3.491-7.48,3.491
		s-3.989,0.499-9.475,6.483c-5.485,5.984-11.469,21.442-22.44,24.434c-10.971,2.992-40.114-9.068-42.885-12.466
		c-2.771-3.399-6.483,41.389-4.987,47.373c1.496,5.984,31.416,18.451,62.333,11.968c12.965-5.984,17.952-11.469,24.434-15.458
		c6.483-3.989,14.648,9.396,12.467,21.941c-2.182,12.545-4.987,20.944-8.477,23.437c-3.491,2.493-18.451,6.483-26.429-1.496
		c-6.981,0-32.413,3.491-44.879,0c3.989,6.981,8.976,14.96,8.976,14.96s16.954,43.882,3.989,67.818
		c-12.965,23.936-14.96,33.909-14.96,40.89c0,6.981,4.987,14.461,20.944,14.461s26.928-1.496,31.914,2.992
		c4.987,4.488,4.488,18.45-4.488,17.453c-1.995,3.989-8.976,5.485-11.968,3.491c-4.488,4.488-15.458,1.995-19.946,0.499
		c-4.488-1.496-26.429-6.483-36.901-12.965c-10.472-6.483-5.485-24.933-3.491-31.914c1.995-6.981,1.496-11.469,1.995-12.965
		c0.499-1.496,0.997-7.48,2.992-13.464c1.995-5.984-2.493-22.938-12.466-31.416c-9.973-8.477-31.029-14.122-39.394-13.464
		c-8.366,0.659-27.426,16.456-34.906,23.936c-7.48,7.48-13.464,7.979-16.954,11.968c-3.491,3.989-20.944,28.424-24.933,35.904
		c-3.989,7.48-11.968,33.909-16.456,42.386c-4.488,8.477-11.469,18.949-27.426,22.938c-15.957,3.989-31.914,7.979-34.906,2.992
		c-8.976,3.989-12.466,3.989-14.96-0.499c-13.962-1.995-11.469-7.979-8.976-13.963c2.493-5.984,18.949-11.968,28.922-13.464
		c9.973-1.496,18.451-5.984,26.429-12.466c7.979-6.483,10.472-13.962,9.474-20.944c-0.997-6.981,2.493-58.842,10.472-76.295
		c7.979-17.453,17.203-32.541,19.448-34.408c2.244-1.866,3.491-7.48,0.499-5.984c-2.992,1.496-10.472,2.992-6.483-1.496
		c3.989-4.488,16.456-20.944,16.456-20.944s11.469-30.917,12.467-45.877c0.997-14.96,22.938-64.826,26.928-73.802
		C178.549,179.657,190.517,170.183,190.517,170.183z"/>
	<path style="fill:#FFFFFF;" d="M369.038,211.073c5.984-0.997,90.756-29.421,96.241-32.413c5.485-2.992,0.997-16.456,0.997-16.456
		h-9.475l-90.258,28.922l-10.472,21.941L369.038,211.073z"/>
	<path style="fill:#FFFFFF;" d="M360.062,244.483c-3.989,5.485,0,17.952,1.496,18.45c1.496,0.499,56.847,49.866,58.842,49.367
		c1.995-0.499,54.354-56.349,55.85-63.829c1.496-7.48-2.992-16.456-2.992-16.456L360.062,244.483z"/>
	<g>
		<path style="fill:#231815;" d="M287.637,129.101c-4.592-5.757-10.112-10.227-15.539-15.148c-1.829-1.659-3.392-4.412-5.681-5.418
			c-3.157-1.386-6.477,1.387-4.574,4.628c1.319,2.248,4.208,2.774,6.344,3.963c3.554,1.977,7.003,4.234,10.266,6.657
			c5.395,4.007,9.548,8.754,11.563,15.293c4.601,14.929-7.102,27.589-17.168,37.04c-0.971,0.912-10.024,8.73-3.98,9.06
			c2.09,0.114,4.048-3.883,5.237-5.29c1.629-1.927,3.391-3.739,5.08-5.613c5.89-6.537,11.951-13.765,14.002-22.542
			C295.114,143.478,292.121,135.883,287.637,129.101z"/>
		<path style="fill:#231815;" d="M233.197,44.587c2.213,9.265,1.275,19.451,1.136,28.89c-0.112,7.635-0.368,15.379,0.164,23.006
			c0.25,3.576,0.925,7.285,2.71,10.44c0.828,1.464,5.892,7.646,7.984,4.378c0.832-1.301-1.569-4.018-2.105-5.083
			c-0.816-1.624-1.393-3.354-1.924-5.087c-1.051-3.432-2.045-6.92-2.589-10.472c-2.611-17.071,1.184-35.752-4.646-52.222
			c-2.916-8.237-8.161-15.246-14.231-21.442c-1.433-1.463-14.05-14.099-15.713-10.472c-0.708,1.544,3.668,4.696,4.452,5.344
			c3.845,3.179,7.846,6.086,11.38,9.631C226.158,27.857,231.246,35.728,233.197,44.587z"/>
		<path style="fill:#231815;" d="M185.242,40.855c0.452-5.699,1.443-11.384,3.233-16.822c0.806-2.449,1.72-4.946,3.044-7.164
			c0.777-1.302,1.626-3.18,2.543-1.392c0.748,1.458-1.03,5.57-1.431,6.968c-0.898,3.133-1.869,6.225-2.515,9.425
			c-1.377,6.819-1.84,13.822-1.363,20.763c0.893,12.992,5.426,25.414,10.07,37.477c2.253,5.853,4.742,11.608,7.52,17.232
			c0.488,0.987,4.983,10.895,5.401,10.88c-1.469,0.056-4.424-5.424-5.187-6.516c-2.04-2.921-3.98-5.908-5.794-8.975
			c-3.48-5.883-6.384-12.036-8.786-18.434C186.622,70.038,183.601,56.119,185.242,40.855z"/>
		<path style="fill:#231815;" d="M266.733,83.275c-1.146,5.854-1.761,11.754-1.524,17.721c0.067,1.692,1.754,13.835-1.453,7.278
			c-2.522-5.159-2.022-11.897-1.46-17.416c0.689-6.771,2.341-13.399,4.135-19.948c3.486-12.732,7.903-25.369,6.987-38.773
			c-0.429-6.274-2.033-12.369-4.46-18.157c-0.387-0.923-4.651-11.054-5.349-11.062c1.527,0.017,4.436,5.621,5.146,6.742
			c1.957,3.088,3.699,6.306,5.084,9.693c2.631,6.434,3.827,13.248,3.579,20.195C276.877,54.759,270.146,68.654,266.733,83.275z"/>
		<path style="fill:#231815;" d="M239.119,30.281c-0.302,0.903-1.934,8.785-3.182,8.928c-2.242,0.258,1.933-11.044,2.5-12.347
			c2.023-4.652,5.059-8.932,8.761-12.405c1.568-1.471,3.264-2.799,5.098-3.92c0.449-0.274,4.85-2.117,4.86-2.154
			c-0.329,1.243-4.139,3.341-5.119,4.285c-1.748,1.685-3.393,3.491-4.986,5.322C243.798,21.729,241.204,25.793,239.119,30.281z"/>
		<path style="fill:#231815;" d="M200.797,133.111c0.657-3.149,1.284-6.318,2.114-9.427c0.287-1.075,0.641-3.769,1.667-4.507
			c2.452-1.765,2.381,3.049,2.193,4.575c-0.546,4.426-1.813,8.908-2.774,13.265c-1.679,7.612-4.006,15.042-6.958,22.259
			c-1.467,3.585-3.11,7.093-5.063,10.441c-0.778,1.333-3.191,6.529-5.027,6.679c0.124-0.01,2.466-8.047,2.77-9.1
			c0.997-3.455,1.94-6.915,3.082-10.326C195.464,149.012,198.423,141.165,200.797,133.111z"/>
		<path style="fill:#231815;" d="M356.288,195.333c17.084-6.309,35.135-9.841,52.475-15.388
			c15.562-4.978,31.019-10.288,46.604-15.194c2.183-0.687,4.37-1.348,6.581-1.94c2.456-0.658,4.926-1.219,7.415-1.734
			c0.961-0.199,2.698-0.239,3.477-0.937c0.714-0.64,1.124-2.095,0.7-2.988c-1.049-2.209-4.315-0.982-5.978-0.314
			c-3.315,1.33-6.122,3.128-9.603,3.929c-7.683,1.77-15.181,4.748-22.642,7.265c-9.342,3.152-18.767,6.073-28.152,9.096
			c-12.423,4.001-24.911,8.388-37.593,11.515c-4.758,1.173-10.297,0.749-14.783,2.851c-1.098,0.514-5.218,3.432-4.074,5.229
			C351.719,198.298,355.211,196.04,356.288,195.333z"/>
		<path style="fill:#231815;" d="M348.405,211.5c1.294,1.862,2.408,5.372,4.458,6.537c2.407,1.368,5.231-0.994,7.355-1.985
			c5.154-2.404,10.662-3.271,16.077-4.792c7.605-2.135,15.09-4.763,22.595-7.229c14.872-4.886,29.753-9.781,44.548-14.894
			c5.253-1.815,10.467-3.744,15.722-5.555c2.782-0.958,5.55-1.675,8.442-2.226c1.902-0.363,7.957-0.736,9.099-2.718
			c1.285-2.23-2.879-2.356-4.262-2.145c-3.064,0.466-6.287,2.432-9.281,3.384c-3.963,1.26-7.918,2.452-11.817,3.895
			c-15.899,5.884-32.293,10.654-48.449,15.779c-7.554,2.396-15.13,4.518-22.823,6.441c-4.594,1.149-9.18,2.421-13.805,3.437
			c-2.787,0.612-5.587,1.294-8.388,1.831C354.966,211.816,351.034,210.275,348.405,211.5z"/>
		<path style="fill:#231815;" d="M427.373,211.264c-21.118,1.489-42.236,2.518-63.357,3.751c-4.209,0.246-9.522,0.211-13.442,1.977
			c-2.911,1.312-1.559,2.464,1.009,2.849c6.886,1.031,14.126-0.574,20.934-1.528c16.321-2.287,32.858-3.631,49.289-4.837
			c10.431-0.766,20.888-1.234,31.331-1.812c5.714-0.316,11.43-0.629,17.148-0.874c3.721-0.16,7.819-0.022,11.377-1.307
			c2.694-0.973,2.087-1.777-0.516-2.038c-5.761-0.578-11.868,0.661-17.607,1.173C451.498,209.693,439.43,210.419,427.373,211.264z"
			/>
		<path style="fill:#231815;" d="M351.285,261.501c-0.386-6.729-0.694-13.453-0.486-20.194c0.155-5.038,1.144-9.959,1.362-14.962
			c0.079-1.821-0.429-10.464-4.183-7.01c-2.532,2.329-1.431,8.291-1.033,11.186c1.507,10.963,1.964,22.587,2.081,33.652
			c0.066,6.21,0.105,12.426-0.033,18.636c-0.036,1.606-1.023,9.068,1.942,9.43c3.213,0.392,1.186-10.993,1.084-12.615
			C351.641,273.59,351.568,267.54,351.285,261.501z"/>
		<path style="fill:#231815;" d="M183.693,243.83c7.507,1.678,12.117,8.784,14.942,15.391c2.876,6.726,5.654,13.228,9.75,19.33
			c8.052,11.995,19.613,23.983,32.118,31.362c12.153,7.171,26.382,10.559,40.309,12.007c7.735,0.804,15.533,1.028,23.305,0.919
			c1.559-0.022,19.355-1.319,19.475-0.073c0.383,3.722-35.561,3.06-39.107,2.73c-12.825-1.195-25.827-3.826-37.683-8.963
			c-12.196-5.285-22.265-13.372-31.605-22.741c-4.364-4.378-8.477-9.067-11.732-14.34c-3.824-6.196-6.065-13.029-9.384-19.454
			c-3.005-5.817-7.888-8.391-13.336-11.44c-1.264-0.708-6.218-1.572-5.471-3.423C176.22,242.793,181.984,243.533,183.693,243.83z"/>
		<path style="fill:#231815;" d="M237.164,259.08c-3.388-5.503-6.243-11.321-8.418-17.408c-0.721-2.016-4.705-11.29-2.722-12.907
			c0.866-0.706,5.374,11.285,5.678,12.077c1.912,4.996,4.179,9.865,6.859,14.497c5.637,9.741,13.165,18.535,22.256,25.209
			c9.132,6.704,19.882,10.708,31.01,12.557c5.573,0.926,11.237,1.343,16.884,1.407c1.259,0.014,12.509,0.387,12.666-0.047
			c-0.454,1.252-8.082,1.445-9.087,1.555c-4.311,0.469-8.656,0.746-12.994,0.718c-8.023-0.052-15.961-1.195-23.54-3.885
			C258.838,286.848,246.188,274.277,237.164,259.08z"/>
		<path style="fill:#231815;" d="M344.8,210.873c-0.664-0.709-1.825-2.461-0.217-2.91c0.654-0.183,2.429,2.674,2.657,3.156
			c0.236,0.499,1.46,6.768,0.449,6.913C345.843,218.295,345.35,211.905,344.8,210.873z"/>
		<path style="fill:#231815;" d="M473.339,162.394c-0.242-0.64-1.542-4.155-0.324-4.818c1.322-0.719,2.237,4.626,2.603,5.573
			c0.66,1.713,5.208,10.73,3.34,12.528C478.429,176.186,473.565,163.331,473.339,162.394z"/>
		<path style="fill:#231815;" d="M269.438,189.659c4.47-1.477,10.391-1.488,11.148,4.299c0.301,2.3-0.104,4.673,0.216,6.988
			c0.387,2.797,1.289,3.372,3.017,5.168c3.207,3.333,5.442,7.362,9.095,10.346c4.698,3.838,8.054,2.235,11.767-2.16
			c5.932-7.02,10.375-14.904,17.069-21.362c7.891-7.613,17.281-13.62,28.452-14.217c4.344-0.232,8.643-0.592,12.643,1.518
			c4.093,2.159,6.954,7.117,4.246,11.496c-0.86,1.391-3.377,3.559-4.95,1.675c-1.459-1.746,0.652-2.582,1.262-3.864
			c2.729-5.736-7.32-7.724-11.052-7.943c-19.784-1.16-33.227,16.88-43.345,31.324c-2.702,3.857-6.203,9.403-11.557,9.25
			c-5.395-0.154-9.954-5.582-13.26-9.238c-3.147-3.479-7.332-7.102-8.59-11.761c-0.58-2.146-0.481-4.025-2.118-5.745
			C271.718,193.581,269.096,192.756,269.438,189.659z"/>
		<path style="fill:#231815;" d="M265.039,231.111c0.467-3.843,0.96-7.706,1.746-11.5c0.247-1.191,0.508-4.386,1.569-5.245
			c2.01-1.627,1.687,2.592,1.61,3.902c-0.295,5.025-1.422,10.11-2.07,15.107c-1.211,9.345-2.755,18.65-3.758,28.02
			c-0.182,1.702-1.291,23.129-1.113,23.106c-2.895,0.375-2.69-23.46-2.46-25.967C261.412,249.308,263.334,240.207,265.039,231.111z"
			/>
		<path style="fill:#231815;" d="M163.756,205.87c4.778-11.164,10.768-22.909,19.481-31.578c0.606-0.602,2.751-3.141,3.794-2.926
			c2.017,0.415-1.77,5.749-2.448,6.85c-3.589,5.822-7.603,11.329-10.854,17.365c-7.325,13.6-12.2,28.266-16.799,42.96
			c-2.39,7.635-4.862,15.281-6.589,23.099c-1.743,7.892-2.878,15.907-4.771,23.768c-1.883,7.819-4.561,15.557-9.182,22.214
			c-2.073,2.986-4.577,5.792-7.4,8.092c-1.929,1.572-5.731,4.862-8.39,4.898c0.218-0.003,3.244-2.892,3.736-3.3
			c1.448-1.204,2.856-2.529,4.131-3.912c3.328-3.611,5.892-7.893,7.73-12.436c4.168-10.298,5.216-21.603,7.098-32.461
			C147.023,246.977,154.596,225.662,163.756,205.87z"/>
		<path style="fill:#231815;" d="M128.34,323.093c0.745-0.508,3.06-1.536,3.424-0.046c0.325,1.33-2.324,2.081-3.225,2.65
			c-0.412,0.26-7.634,4.614-7.746,3.41C120.546,326.443,126.496,323.812,128.34,323.093z"/>
		<path style="fill:#231815;" d="M285.926,327.366c11.824,8.383,15.364,22.635,15.869,36.297
			c0.541,14.638,0.252,30.823-5.602,44.474c-5.077,11.84-17.658,26.546-13.776,40.39c2.006,7.153,9.855,8.798,16.313,9.477
			c7.336,0.772,14.534,0.428,21.878,0.42c6.866-0.008,12.385,1.961,16.101,7.979c1.787,2.895,3.506,6.79,2.843,10.281
			c-0.211,1.111-0.697,2.64-1.701,3.289c-1.726,1.115-1.508,0.531-1.614-0.691c-0.072-0.822,0.7-2.307,0.699-3.279
			c-0.003-1.548-0.429-3.065-0.929-4.518c-0.927-2.696-2.419-5.512-4.633-7.372c-5.441-4.572-13.821-2.387-20.262-2.387
			c-11.792,0-31.368-0.044-32.229-15.836c-0.76-13.96,9.217-26.656,13.847-39.148c5.072-13.684,5.249-29.933,3.481-44.226
			c-1.04-8.403-3.229-16.465-6.961-24.07c-1.748-3.563-3.635-6.736-6.053-9.878C280.728,325.361,283.302,325.759,285.926,327.366z"
			/>
		<path style="fill:#231815;" d="M327.567,474.458c-0.309-0.656-1.152-2.928,0.471-2.868c0.922,0.034,1.583,2.96,1.675,3.523
			c0.221,1.351-1.152,8.008-3.669,6.208C326.255,481.471,327.69,475.264,327.567,474.458z"/>
		<path style="fill:#231815;" d="M314.852,481.301c-0.108-0.746-0.605-3.276,0.617-3.452c1.489-0.215,1.303,3.945,1.274,4.685
			c-0.081,2.056-0.872,4.102-2.838,5.091c-0.792,0.399-4.309,1.088-4.65-0.3c0.063,0.258,3.531-1.581,3.728-1.765
			C314.181,484.439,314.78,482.945,314.852,481.301z"/>
		<path style="fill:#231815;" d="M201.101,369.308c0.683-0.359,13.242-5.148,12.406-1.928c-0.375,1.444-5.115,1.967-6.062,2.267
			c-2.824,0.893-5.472,2.247-8.001,3.771c-5.465,3.293-10.723,7.089-15.403,11.429c-0.817,0.758-9.785,10.309-9.323,10.681
			c-0.953-0.767,2.456-6.525,3.014-7.459c1.649-2.759,3.62-5.2,5.942-7.424C188.647,375.884,194.768,372.002,201.101,369.308z"/>
		<path style="fill:#231815;" d="M158.539,402.319c0.769-1.063,4.669-6.529,6.66-5.479c1.803,0.951-4.694,7.487-5.591,8.755
			c-2.516,3.554-4.974,7.135-7.802,10.457c-0.504,0.592-8.244,7.88-8.454,7.114c-0.276-1.007,2.58-4.008,3.198-5.015
			c1.126-1.833,2.24-3.643,3.515-5.382C152.714,409.157,155.55,405.654,158.539,402.319z"/>
		<path style="fill:#231815;" d="M135.449,441.725c-2.257,8.911-8.363,16.751-11.614,25.365c-3.715,9.845-6.853,19.993-13.55,28.31
			c-12.461,15.475-32.812,15.297-50.966,16.6c-0.421-0.807,12.975-3.865,13.876-4.051c5.151-1.065,10.345-2.051,15.449-3.326
			c10.66-2.663,19.039-8.524,24.066-18.37c4.729-9.26,6.161-19.549,10.084-29.072c2.071-5.028,4.472-10.46,8.057-14.615
			C131.96,441.282,136.954,436.685,135.449,441.725z"/>
		<path style="fill:#231815;" d="M118.54,349.706c1.993-3.097,4.016-6.185,5.865-9.371c0.584-1.007,2.909-4.16,2.534-5.466
			c-0.938-3.269-8.272,5.345-9.366,6.694c-10.381,12.809-15.083,28.424-18.921,44.176c-1.803,7.401-3.529,14.915-4.348,22.499
			c-0.816,7.556-0.403,15.187-0.176,22.763c0.468,15.619-0.385,32.076-14.964,41.221c-13.562,8.507-30.411,6.767-44.433,13.945
			c-6.014,3.079-11.727,8.722-10.047,16.099c0.305,1.339,1.525,5.16,3.167,4.276c0.904-0.486,0.621-6.969,1.22-8.398
			c2.616-6.243,10.521-8.958,16.426-10.869c7.264-2.35,14.816-3.666,22.03-6.185c13.406-4.681,24.805-13.066,28.1-27.542
			c3.879-17.042-0.89-34.701,2.982-51.886C102.628,383.826,108.63,365.17,118.54,349.706z"/>
		<path style="fill:#231815;" d="M40.128,501.707c0.364-0.583,1.87-2.706,2.863-2.168c1.429,0.774-1.114,2.871-1.627,3.706
			c-0.796,1.294-1.601,3.021-1.701,4.53c-0.042,0.633,0.754,4.184,1.017,4.14c-1.922,0.318-3.197-3.26-3.229-4.451
			C37.395,505.375,38.771,503.215,40.128,501.707z"/>
		<path style="fill:#231815;" d="M52.392,502.14c0.125-0.661,0.805-1.88,1.688-1.367c1.051,0.61,0.101,1.039,0.092,1.817
			c-0.015,1.216-0.065,5.028-1.396,5.495C51.104,508.671,52.101,502.718,52.392,502.14z"/>
		<path style="fill:#231815;" d="M233.504,374.658c-1.154-0.427-7.962-1.717-8.375-3.194c-0.988-3.528,10.921,1.24,12.148,1.829
			c4.49,2.157,8.511,5.437,11.542,9.396c1.286,1.68,2.374,3.507,3.181,5.466c0.144,0.349,1.565,5.249,1.06,5.145
			c-0.965-0.2-2.945-4.313-3.713-5.222c-1.344-1.593-2.807-3.096-4.269-4.579C241.605,379.976,237.85,377.017,233.504,374.658z"/>
		<path style="fill:#231815;" d="M260.322,396.938c-0.52-1.71-1.251-3.339-2.322-4.774c-0.751-1.006-2.867-2.355-0.996-3.155
			c3.659-1.563,6.1,7.338,6.523,9.389c1.025,4.957,0.592,10.186-0.608,15.077c-0.521,2.124-1.23,4.196-2.203,6.156
			c-0.162,0.326-2.812,4.658-3.094,4.18c-0.482-0.818,1.228-5.08,1.41-6.215c0.333-2.071,0.589-4.158,0.878-6.235
			C260.57,406.628,261.253,401.685,260.322,396.938z"/>
		<path style="fill:#231815;" d="M252.119,447.812c0.267-1.587,5.636-22.209,8.147-20.983c1.804,0.881-2.612,10.852-2.96,11.895
			c-1.818,5.44-3.221,11.176-2.891,16.954c0.659,11.536,9.34,17.567,19.368,21.321c2.132,0.798,25.2,6.993,24.962,8.341
			c-0.027,0.15-14.278-2.495-15.496-2.722c-6.396-1.196-12.762-2.792-18.529-5.895C253.6,470.737,249.632,459.898,252.119,447.812z"
			/>
		<path style="fill:#231815;" d="M334.447,328.489c-1.175-0.284-7.258-2.388-6.441-4.599c0.691-1.871,6.778,1.86,8.303,2.157
			c3.539,0.69,7.348,0.499,10.819-0.414c1.826-0.48,3.627-1.159,5.35-1.932c0.742-0.333,2.994-2.02,3.877-1.726
			c0.42,0.14-3.538,4.109-3.963,4.446c-1.762,1.398-3.72,2.396-5.911,2.942C342.515,330.351,338.259,329.846,334.447,328.489z"/>
		<path style="fill:#231815;" d="M352.015,318.254c-0.769,0.209-4.994,1.249-5.489-0.276c-0.412-1.269,5.474-1.636,6.4-1.968
			c2.458-0.883,5.482-2.101,4.231-5.102c-0.218-0.524-3.048-3.581-2.819-3.893c1.048-1.427,5.641,4.419,5.536,5.865
			C359.618,316.407,354.834,317.806,352.015,318.254z"/>
		<path style="fill:#231815;" d="M349.179,307.738c-0.654,0.201-4.945,0.383-4.646-1.407c0.204-1.222,3.636-0.143,4.766-0.6
			c2.42-0.979,3.561-3.82,3.928-6.191c0.068-0.438,0.378-4.051,0.31-4.089c2.186,1.225,1.746,6.185,0.984,7.915
			C353.542,305.588,351.612,307.335,349.179,307.738z"/>
		<path style="fill:#231815;" d="M332.951,291.543c-0.867,0.755-6.34,4.377-6.979,1.728c-0.314-1.298,5.792-4.365,6.899-5.461
			c2.317-2.293,4.52-4.733,7.132-6.708c1.045-0.79,7.252-4.845,8.635-2.776C348.511,278.136,334.302,290.622,332.951,291.543z"/>
		<path style="fill:#231815;" d="M290.508,248.303c-4.643-0.983-9.24-2.49-13.414-4.777c-1.195-0.655-8.556-5.302-5.108-5.587
			c1.614-0.133,4.488,1.872,5.826,2.53c2.517,1.238,5.046,2.377,7.714,3.258c5.696,1.881,11.886,2.957,17.894,2.589
			c7.923-0.485,13.858-5.477,19.296-10.84c3.723-3.672,5.742-8.788,8.859-12.948c1.587-2.118,8.014-9.313,11.374-5.81
			c-0.65-0.753-4.739,1.463-5.413,2.007c-2.178,1.761-3.574,4.44-4.837,6.88c-3.009,5.815-5.245,10.723-10.137,15.211
			c-4.708,4.32-9.594,8.191-16.159,8.986C301.124,250.445,295.629,249.643,290.508,248.303z"/>
		<path style="fill:#231815;" d="M347.843,207.213c-0.994,0.768-7.43,4.747-8.239,2.484c0.146,0.408,9.271-5.836,10.037-6.832
			c6.819-8.878-9.028-11.505-9.015-11.533c0.35-0.749,5.303,0.034,6.027,0.161c2.444,0.427,4.935,1.354,6.309,3.547
			C355.876,199.691,351.625,204.719,347.843,207.213z"/>
		<path style="fill:#231815;" d="M319.089,131.026c-2.84,1.612-5.597,3.346-8.365,5.074c-0.118,0.074-3.451,2.171-3.431,1.425
			c0.091-3.273,8.443-6.812,10.686-8.072c4.354-2.445,8.854-4.536,13.565-6.196c4.795-1.689,9.784-3.099,14.844-3.7
			c2.34-0.278,4.748-0.416,7.102-0.278c0.434,0.025,4.136,0.675,4.103,0.722c-0.512,0.704-7.056,0.597-8.362,0.847
			c-3.246,0.62-6.45,1.505-9.628,2.403C332.555,125.244,325.629,127.708,319.089,131.026z"/>
		<path style="fill:#231815;" d="M319.561,144.111c-1.09,0.242-13.168,3.529-14.017,1.703c-0.632-1.359,8.602-2.56,8.798-2.598
			c8.801-1.675,17.442-3.734,26.433-4.128c4.074-0.178,8.183-0.071,12.214,0.577c0.658,0.106,8.632,2.348,8.581,2.397
			c-0.726,0.708-8.77-0.879-10.184-0.9c-3.759-0.056-7.53,0.105-11.281,0.343C333.203,141.943,326.385,143.023,319.561,144.111z"/>
		<path style="fill:#231815;" d="M316.697,157.018c-1.129-0.108-10.459,0.216-11.056-1.072c-0.915-1.975,14.94-0.328,16.456-0.042
			c1.896,0.358,28.134,8.836,27.425,10.22c-0.376,0.734-13.351-3.646-14.669-4.075C328.868,160.098,322.925,158.064,316.697,157.018
			z"/>
		<path style="fill:#231815;" d="M283.391,151.819c-2.507,0.319-4.241-1.376-1.112-1.905c0.704-0.119,10.679-0.486,10.137,1.204
			C291.891,152.752,284.621,151.931,283.391,151.819z"/>
		<path style="fill:#231815;" d="M187.274,56.841c3.453,5.226,4.324-0.46,6.307-3.26c2.045-2.886,3.293-6.104,7.151-5.288
			c4.009,0.847,3.671,4.459,6.764,6.283c4.631,2.731,9.993-2.318,9.836-6.947c1.175,0.296,2.702,0.259,3.748,0.946
			c1.889,1.24,1.424,3.174,4.23,2.155c4.394-1.595,3.345-5.906,0.581-8.626c1.12,1.461,2.86,2.227,4.207,3.433
			c4.666-8.902-3.531-18.187-9.292-24.23C214.624,14.823,205.082,8.504,201.565,0c-5.674,8.435-9.396,18.342-11.995,28.118
			C187.161,37.181,185.132,47.522,187.274,56.841z"/>
		<path style="fill:#231815;" d="M239.672,42.806c1.41-4.646,3.611-1.617,5.816,0.544c3.795,3.718,6.77,2.068,9.178-2.389
			c0.191,1.202,1.352,3.51,2.296,4.286c0.153,1.143,0.72,1.316,1.7,0.519c0.671-0.102,1.321-0.274,1.951-0.518
			c1.82,0.146,4.287,4.548,4.526,6.632c0.979-2.626-2.533-12.496,2.778-11.956c3.773,0.384,4.883,7.207,5.39,10.085
			c6.188-6.494,1.783-19.858-0.652-27.103c-1.415-4.21-3.068-8.395-5.096-12.348c-1.371-2.672-3.41-7.348-7.047-7.093
			c-3.628,0.255-6.805,4.458-8.909,6.991c-2.758,3.319-5.083,6.947-7.63,10.421c-3.054,4.166-6.424,8.165-8.258,13.065
			c-0.951,2.541-1.443,5.214-1.565,7.92c-0.094,2.089-0.45,2.754,1.738,2.854C237.17,44.776,238.717,43.476,239.672,42.806z"/>
		<path style="fill:#231815;" d="M251.677,164.629c0.568-0.91,1.762-3.221,3.104-2.855c1.416,0.386-1.899,4.516-2.339,5.091
			c-1.331,1.74-2.925,3.307-4.831,4.422c-0.43,0.252-5.441,1.753-5.205,1.27c0.637-1.305,3.708-2.935,4.891-3.916
			C248.83,167.369,250.335,166.104,251.677,164.629z"/>
		<path style="fill:#231815;" d="M229.192,167.961c0.54-0.88,1.828-3.032,3.115-2.429c1.175,0.551-1.805,3.956-2.253,4.576
			c-1.178,1.633-2.518,3.202-4.251,4.281c-0.422,0.263-5.236,1.584-4.883,0.969c0.674-1.172,3.251-2.506,4.366-3.531
			C226.639,170.582,227.957,169.323,229.192,167.961z"/>
		<path style="fill:#231815;" d="M211.264,171.821c0.337-0.385,2.775-2.942,3.441-1.405c0.42,0.97-2.802,3.572-3.431,4.161
			c-1.258,1.178-2.7,2.252-4.28,2.954c-0.103,0.046-4.117,1.314-3.919,0.652c0.27-0.907,3.311-2.858,4.082-3.432
			C208.505,173.747,209.922,172.837,211.264,171.821z"/>
		<path style="fill:#231815;" d="M486.552,302.267c-0.569-4.497-0.03-9.375-0.219-13.949c-0.577-14.005-1.402-28.003-1.778-42.017
			c-0.206-7.672-0.911-15.778,0.041-23.425c0.414-3.332,1.851-7.477,0.729-10.785c-0.26-0.766-1.87-3.877-3.238-3.137
			c-0.02,0.011-0.028,0.034-0.047,0.047c-2.586-1.229-7.807-0.779-9.741-0.765c-11.789,0.084-23.868,2.015-35.622,2.939
			c-28.303,2.227-56.952,3.232-85.129,6.754c-4.723,4.977-3.533,11.168-3.223,17.376c0.788,15.75,1.654,31.508,2.87,47.232
			c0.199,2.564,0.182,5.321,0.699,7.845c0.654,3.188,3.185,4.359,2.928,8.129c-0.096,1.417-0.456,2.806-0.626,4.214
			c-0.179,1.479-0.191,2.137,0.452,3.148c1.026,1.614,1.949,2.153,2.084,4.314c0.131,2.112-0.326,4.317-0.977,6.381
			c-0.663,0.074-1.327,0.142-1.984,0.247c-1.663,0.265-5.945,0.718-3.925,2.895c2.031,2.189,10.558,1.115,13.099,1.003
			c3.836-0.169,7.617-0.728,11.434-1.099c20.765-2.019,41.581-3.756,62.406-5.008c3.335-0.201,42.152-1.4,46.127-3.928
			c0.295-0.058,0.593-0.113,0.874-0.19c0.32,0.83,0.941,1.44,2.258,1.061C489.099,310.673,486.798,304.207,486.552,302.267z
			 M469.742,243.817c-0.273,2.409-5.188,3.159-8.093,3.391c-5.83,0.477-13.928,0.832-21.723,1.155l-14.415,0.596
			c-2.047,0.091-4.129,0.183-6.221,0.299c0.119,0.419,0.219,0.855,0.274,1.318c0.341,2.654,0.377,5.985,0.115,10.784
			c-0.044,0.86-0.097,1.736-0.15,2.62c-0.185,3.083-0.376,6.269-0.262,9.37c0.132,3.807,0.142,6.66,0.15,8.952
			c0.013,3.904,0.022,6.483,0.612,10.215c0.857,5.269,0.581,9.053-0.777,10.649c-0.47,0.552-1.086,0.857-1.734,0.857h-0.001
			c-0.576-0.001-1.139-0.246-1.584-0.692c-0.83-0.832-1.285-2.378-1.281-4.356l-0.153-25.551c-0.038-4.664-0.071-8.695-0.301-12.155
			l-0.715-9.505c-0.051-0.557-0.111-1.309-0.104-2.088c-0.227,0.019-0.455,0.028-0.682,0.048
			c-9.573,0.746-17.102,1.671-23.743,2.487c-6.513,0.801-12.137,1.492-18.309,1.874c-1.353,0.092-2.594,0.139-3.68,0.139
			c-0.001,0-0.001,0-0.001,0c-3.203,0-6.179-0.297-6.266-2.454c-0.108-2.679,5.34-3.521,8.598-3.785
			c4.314-0.34,9.544-0.667,15.082-1.012c8.623-0.538,18.397-1.147,27.908-2c4.645-0.465,8.524-0.648,11.947-0.809l9.739-0.406
			c5.104-0.218,9.481-0.446,15.419-1.224c6.161-0.801,11.226-1.224,14.649-1.224c1.944,0,3.294,0.132,4.128,0.404
			C469.455,242.12,469.827,243.067,469.742,243.817z"/>
		<path style="fill:#231815;" d="M256.961,147.278c-5.599-4.14-1.186-15.788,4.151-13.396
			C266.45,136.275,264.077,152.54,256.961,147.278z"/>
		<path style="fill:#231815;" d="M452.307,165.191c1.154,3.132,2.308,6.264,3.461,9.396c0.542,1.472,1.834,7.299,3.142,7.751
			c0.738,0.255,3.052-0.971,3.79-1.206c2.238-0.712,4.476-1.424,6.714-2.136c3.062-0.975,6.125-1.949,9.187-2.924
			c-2.116-6.045-4.231-12.09-6.347-18.134C465.606,160.355,458.957,162.773,452.307,165.191z"/>
		<path style="fill:#231815;" d="M434.172,170.178c0.939,2.817,1.878,5.634,2.817,8.451c0.449,1.348,3.697,7.837,3.069,9.207
			c-0.526,1.148-7.076,2.446-8.215,2.836c-3.002,1.027-6.004,2.054-9.006,3.081c-0.939-2.817-1.878-5.634-2.817-8.451
			c-0.449-1.348-3.697-7.838-3.069-9.208c0.526-1.148,7.076-2.446,8.215-2.835C428.169,172.232,431.17,171.205,434.172,170.178z"/>
		<path style="fill:#231815;" d="M398.356,182.419c1.813,5.743,3.627,11.485,5.44,17.228c-5.289,1.662-10.579,3.325-15.868,4.987
			c-1.813-5.894-3.626-11.788-5.44-17.682C387.778,185.441,393.067,183.93,398.356,182.419z"/>
		<path style="fill:#231815;" d="M368.434,191.033c1.084,3.942,2.168,7.884,3.252,11.826c0.364,1.324,1.897,4.433,1.585,5.763
			c-0.224,0.956-0.238,0.498-1.495,1.016c-7.391,3.045-15.681,4.248-23.289,6.783c-0.453-1.924-2.285-5.96-1.746-7.771
			c0.351-1.179,2.829-2.889,3.632-3.86c1.661-2.008,2.663-3.695,3.138-6.222c0.791-4.205,1.615-3.987,5.447-5.008
			C362.116,192.717,365.275,191.875,368.434,191.033z"/>
	</g>
</g>
</svg>
